<svg width="28" height="28" viewBox="0 0 28 28" fill="none" xmlns="http://www.w3.org/2000/svg">
<g clip-path="url(#clip0_42_679)">
<path d="M23.625 11.375V12.25C23.6232 13.7305 23.0857 15.1604 22.1119 16.2755C21.1381 17.3907 19.7936 18.1158 18.3269 18.317C18.9256 19.0832 19.2506 20.0277 19.25 21V25.375C19.25 25.6071 19.1578 25.8296 18.9937 25.9937C18.8296 26.1578 18.6071 26.25 18.375 26.25H11.375C11.1429 26.25 10.9204 26.1578 10.7563 25.9937C10.5922 25.8296 10.5 25.6071 10.5 25.375V23.625H7.875C6.71468 23.625 5.60188 23.1641 4.78141 22.3436C3.96094 21.5231 3.5 20.4103 3.5 19.25C3.5 18.5538 3.22344 17.8861 2.73116 17.3939C2.23887 16.9016 1.57119 16.625 0.875 16.625C0.642936 16.625 0.420376 16.5328 0.256282 16.3687C0.0921872 16.2046 0 15.9821 0 15.75C0 15.518 0.0921872 15.2954 0.256282 15.1313C0.420376 14.9672 0.642936 14.875 0.875 14.875C1.44953 14.875 2.01844 14.9882 2.54924 15.208C3.08004 15.4279 3.56234 15.7502 3.96859 16.1564C4.37485 16.5627 4.69711 17.045 4.91697 17.5758C5.13684 18.1066 5.25 18.6755 5.25 19.25C5.25 19.9462 5.52656 20.6139 6.01884 21.1062C6.51113 21.5985 7.17881 21.875 7.875 21.875H10.5V21C10.4994 20.0277 10.8244 19.0832 11.4231 18.317C9.95636 18.1158 8.61194 17.3907 7.63812 16.2755C6.6643 15.1604 6.12684 13.7305 6.125 12.25V11.375C6.13589 10.2876 6.42548 9.22111 6.96609 8.27751C6.69864 7.41476 6.61285 6.50595 6.71413 5.60839C6.8154 4.71082 7.10155 3.84398 7.55453 3.06251C7.63135 2.92947 7.74183 2.81899 7.87489 2.74219C8.00794 2.66539 8.15887 2.62498 8.3125 2.62501C9.33167 2.62288 10.3372 2.85915 11.2488 3.31493C12.1604 3.77072 12.9527 4.4334 13.5625 5.25001H16.1875C16.7973 4.4334 17.5896 3.77072 18.5012 3.31493C19.4128 2.85915 20.4183 2.62288 21.4375 2.62501C21.5911 2.62498 21.7421 2.66539 21.8751 2.74219C22.0082 2.81899 22.1187 2.92947 22.1955 3.06251C22.6485 3.84396 22.9346 4.71085 23.0357 5.60846C23.1368 6.50606 23.0507 7.41487 22.7828 8.27751C23.3244 9.22074 23.6145 10.2874 23.625 11.375Z" fill="black"/>
</g>
<defs>
<clipPath id="clip0_42_679">
<rect width="28" height="28" fill="white"/>
</clipPath>
</defs>
</svg>
