<svg width="28" height="28" viewBox="0 0 28 28" fill="none" xmlns="http://www.w3.org/2000/svg">
<g clip-path="url(#clip0_42_686)">
<path d="M17.5 14C17.5 14.6922 17.2947 15.3689 16.9101 15.9445C16.5256 16.5201 15.9789 16.9687 15.3394 17.2336C14.6999 17.4985 13.9961 17.5678 13.3172 17.4327C12.6383 17.2977 12.0146 16.9644 11.5251 16.4749C11.0356 15.9854 10.7023 15.3617 10.5673 14.6828C10.4322 14.0039 10.5015 13.3001 10.7664 12.6606C11.0313 12.0211 11.4799 11.4744 12.0555 11.0899C12.6311 10.7053 13.3078 10.5 14 10.5C14.9283 10.5 15.8185 10.8687 16.4749 11.5251C17.1313 12.1815 17.5 13.0717 17.5 14ZM25.375 8.75V19.25C25.3733 20.8739 24.7274 22.4308 23.5791 23.5791C22.4308 24.7274 20.8739 25.3733 19.25 25.375H8.75C7.12608 25.3733 5.56917 24.7274 4.42089 23.5791C3.27261 22.4308 2.62674 20.8739 2.625 19.25V8.75C2.62674 7.12608 3.27261 5.56917 4.42089 4.42089C5.56917 3.27261 7.12608 2.62674 8.75 2.625H19.25C20.8739 2.62674 22.4308 3.27261 23.5791 4.42089C24.7274 5.56917 25.3733 7.12608 25.375 8.75ZM19.25 14C19.25 12.9616 18.9421 11.9466 18.3652 11.0833C17.7883 10.2199 16.9684 9.54699 16.0091 9.14963C15.0498 8.75227 13.9942 8.64831 12.9758 8.85088C11.9574 9.05345 11.0219 9.55346 10.2877 10.2877C9.55346 11.0219 9.05345 11.9574 8.85088 12.9758C8.64831 13.9942 8.75227 15.0498 9.14963 16.0091C9.54699 16.9684 10.2199 17.7883 11.0833 18.3652C11.9466 18.9421 12.9616 19.25 14 19.25C15.3919 19.2486 16.7265 18.695 17.7107 17.7107C18.695 16.7265 19.2486 15.3919 19.25 14ZM21.875 7.4375C21.875 7.17791 21.798 6.92415 21.6538 6.70831C21.5096 6.49247 21.3046 6.32425 21.0648 6.22491C20.8249 6.12557 20.561 6.09958 20.3064 6.15022C20.0518 6.20086 19.818 6.32587 19.6344 6.50942C19.4509 6.69298 19.3259 6.92684 19.2752 7.18144C19.2246 7.43604 19.2506 7.69994 19.3499 7.93977C19.4492 8.1796 19.6175 8.38458 19.8333 8.5288C20.0492 8.67302 20.3029 8.75 20.5625 8.75C20.9106 8.75 21.2444 8.61172 21.4906 8.36558C21.7367 8.11944 21.875 7.7856 21.875 7.4375Z" fill="black"/>
</g>
<defs>
<clipPath id="clip0_42_686">
<rect width="28" height="28" fill="white"/>
</clipPath>
</defs>
</svg>
