<svg width="28" height="28" viewBox="0 0 28 28" fill="none" xmlns="http://www.w3.org/2000/svg">
<path d="M18.6665 9.33337C20.523 9.33337 22.3035 10.0709 23.6163 11.3836C24.929 12.6964 25.6665 14.4769 25.6665 16.3334V24.5H20.9998V16.3334C20.9998 15.7145 20.754 15.121 20.3164 14.6835C19.8788 14.2459 19.2853 14 18.6665 14C18.0477 14 17.4542 14.2459 17.0166 14.6835C16.579 15.121 16.3332 15.7145 16.3332 16.3334V24.5H11.6665V16.3334C11.6665 14.4769 12.404 12.6964 13.7168 11.3836C15.0295 10.0709 16.81 9.33337 18.6665 9.33337Z" fill="black"/>
<path d="M7.00016 10.5H2.3335V24.5H7.00016V10.5Z" fill="black"/>
<path d="M4.66683 7.00004C5.95549 7.00004 7.00016 5.95537 7.00016 4.66671C7.00016 3.37804 5.95549 2.33337 4.66683 2.33337C3.37816 2.33337 2.3335 3.37804 2.3335 4.66671C2.3335 5.95537 3.37816 7.00004 4.66683 7.00004Z" fill="black"/>
</svg>
