<svg width="61" height="36" viewBox="0 0 61 36" fill="none" xmlns="http://www.w3.org/2000/svg">
<path d="M6.656 35.52C5.184 35.52 4.032 35.104 3.2 34.272C2.368 33.44 1.952 32.288 1.952 30.816V21.472C1.952 21.2693 1.89867 21.0987 1.792 20.96L0.352 18.912C0.117333 18.56 0 18.176 0 17.76C0 17.344 0.117333 16.96 0.352 16.608L1.792 14.56C1.89867 14.3787 1.952 14.208 1.952 14.048V4.704C1.952 3.24267 2.368 2.096 3.2 1.264C4.032 0.421333 5.184 0 6.656 0H8.928V4.096H6.976C6.72 4.096 6.50133 4.18667 6.32 4.368C6.13867 4.54933 6.048 4.768 6.048 5.024V14.048C6.048 15.0933 5.73867 16.0533 5.12 16.928L4.512 17.76L5.12 18.592C5.73867 19.4667 6.048 20.4267 6.048 21.472V30.496C6.048 30.7627 6.13867 30.9867 6.32 31.168C6.50133 31.36 6.72 31.456 6.976 31.456H8.928V35.52H6.656Z" fill="#9C8CFB"/>
<path d="M12.4475 29.28V6.24H21.6635C23.3062 6.24 24.6342 6.57067 25.6475 7.232C26.6608 7.88267 27.4022 8.704 27.8715 9.696C28.3408 10.688 28.5755 11.6907 28.5755 12.704C28.5755 13.9947 28.2822 15.0667 27.6955 15.92C27.1195 16.7733 26.3248 17.344 25.3115 17.632V16.832C26.7515 17.1307 27.8288 17.7973 28.5435 18.832C29.2688 19.8667 29.6315 21.024 29.6315 22.304C29.6315 23.68 29.3755 24.8907 28.8635 25.936C28.3622 26.9813 27.5942 27.8027 26.5595 28.4C25.5248 28.9867 24.2235 29.28 22.6555 29.28H12.4475ZM16.8635 25.184H22.2075C22.7942 25.184 23.3168 25.0613 23.7755 24.816C24.2342 24.56 24.5915 24.208 24.8475 23.76C25.1142 23.3013 25.2475 22.7627 25.2475 22.144C25.2475 21.6 25.1355 21.1147 24.9115 20.688C24.6875 20.2613 24.3462 19.9253 23.8875 19.68C23.4395 19.424 22.8795 19.296 22.2075 19.296H16.8635V25.184ZM16.8635 15.232H21.5995C22.0902 15.232 22.5275 15.1467 22.9115 14.976C23.2955 14.8053 23.5995 14.544 23.8235 14.192C24.0475 13.8293 24.1595 13.3653 24.1595 12.8C24.1595 12.096 23.9408 11.504 23.5035 11.024C23.0662 10.544 22.4315 10.304 21.5995 10.304H16.8635V15.232Z" fill="#9C8CFB"/>
<path d="M41.5265 29.76C39.8198 29.76 38.2785 29.4613 36.9025 28.864C35.5372 28.256 34.4118 27.392 33.5265 26.272C32.6518 25.1413 32.0972 23.7973 31.8625 22.24L36.4065 21.568C36.7265 22.8907 37.3878 23.9093 38.3905 24.624C39.3932 25.3387 40.5345 25.696 41.8145 25.696C42.5292 25.696 43.2225 25.584 43.8945 25.36C44.5665 25.136 45.1158 24.8053 45.5425 24.368C45.9798 23.9307 46.1985 23.392 46.1985 22.752C46.1985 22.5173 46.1612 22.2933 46.0865 22.08C46.0225 21.856 45.9105 21.648 45.7505 21.456C45.5905 21.264 45.3612 21.0827 45.0625 20.912C44.7745 20.7413 44.4065 20.5867 43.9585 20.448L37.9745 18.688C37.5265 18.56 37.0038 18.3787 36.4065 18.144C35.8198 17.9093 35.2492 17.5733 34.6945 17.136C34.1398 16.6987 33.6758 16.1227 33.3025 15.408C32.9398 14.6827 32.7585 13.7707 32.7585 12.672C32.7585 11.1253 33.1478 9.84 33.9265 8.816C34.7052 7.792 35.7452 7.02933 37.0465 6.528C38.3478 6.02667 39.7878 5.78133 41.3665 5.792C42.9558 5.81333 44.3745 6.08533 45.6225 6.608C46.8705 7.13067 47.9158 7.89333 48.7585 8.896C49.6012 9.888 50.2092 11.104 50.5825 12.544L45.8785 13.344C45.7078 12.5973 45.3932 11.968 44.9345 11.456C44.4758 10.944 43.9265 10.5547 43.2865 10.288C42.6572 10.0213 41.9958 9.87733 41.3025 9.856C40.6198 9.83467 39.9745 9.93067 39.3665 10.144C38.7692 10.3467 38.2785 10.6453 37.8945 11.04C37.5212 11.4347 37.3345 11.904 37.3345 12.448C37.3345 12.9493 37.4892 13.36 37.7985 13.68C38.1078 13.9893 38.4972 14.24 38.9665 14.432C39.4358 14.624 39.9158 14.784 40.4065 14.912L44.4065 16C45.0038 16.16 45.6652 16.3733 46.3905 16.64C47.1158 16.896 47.8092 17.2587 48.4705 17.728C49.1425 18.1867 49.6918 18.7947 50.1185 19.552C50.5558 20.3093 50.7745 21.2693 50.7745 22.432C50.7745 23.6693 50.5132 24.752 49.9905 25.68C49.4785 26.5973 48.7852 27.36 47.9105 27.968C47.0358 28.5653 46.0438 29.0133 44.9345 29.312C43.8358 29.6107 42.6998 29.76 41.5265 29.76Z" fill="#9C8CFB"/>
<path d="M53.697 35.52H51.425V31.456H53.377C53.633 31.456 53.8517 31.36 54.033 31.168C54.2143 30.9867 54.305 30.7627 54.305 30.496V21.472C54.305 20.4267 54.6143 19.4667 55.233 18.592L55.841 17.76L55.233 16.928C54.6143 16.0533 54.305 15.0933 54.305 14.048V5.024C54.305 4.768 54.2143 4.54933 54.033 4.368C53.8517 4.18667 53.633 4.096 53.377 4.096H51.425V0H53.697C55.169 0 56.321 0.421333 57.153 1.264C57.985 2.096 58.401 3.24267 58.401 4.704V14.048C58.401 14.208 58.4543 14.3787 58.561 14.56L60.001 16.608C60.2463 16.96 60.369 17.344 60.369 17.76C60.369 18.176 60.2463 18.56 60.001 18.912L58.561 20.96C58.4543 21.0987 58.401 21.2693 58.401 21.472V30.816C58.401 32.288 57.985 33.44 57.153 34.272C56.321 35.104 55.169 35.52 53.697 35.52Z" fill="#9C8CFB"/>
</svg>
